<svg width="25" height="12" viewBox="0 0 25 12" fill="none" xmlns="http://www.w3.org/2000/svg">
<g opacity="0.35">
<path d="M19.333 0.5H2.667C1.4702 0.5 0.5 1.4702 0.5 2.667V8.666C0.5 9.8628 1.4702 10.833 2.667 10.833H19.333C20.5298 10.833 21.5 9.8628 21.5 8.666V2.667C21.5 1.4702 20.5298 0.5 19.333 0.5Z" stroke="black" stroke-miterlimit="10"/>
</g>
<path opacity="0.4" d="M23 3.66699V7.66699C23.3936 7.50129 23.7295 7.22313 23.9658 6.86737C24.202 6.5116 24.328 6.09404 24.328 5.66699C24.328 5.23994 24.202 4.82238 23.9658 4.46662C23.7295 4.11085 23.3936 3.8327 23 3.66699Z" fill="black"/>
<path d="M18.667 2H3.333C2.5968 2 2 2.5968 2 3.333V8C2 8.7362 2.5968 9.333 3.333 9.333H18.667C19.4032 9.333 20 8.7362 20 8V3.333C20 2.5968 19.4032 2 18.667 2Z" fill="black"/>
</svg>
