<svg width="16" height="11" viewBox="0 0 16 11" fill="none" xmlns="http://www.w3.org/2000/svg">
<path d="M7.44571 10.9038L5.43971 8.88177C5.40885 8.85191 5.38455 8.81594 5.36837 8.77617C5.35218 8.7364 5.34447 8.69369 5.34571 8.65077C5.34609 8.60812 5.35515 8.566 5.37234 8.52697C5.38954 8.48795 5.4145 8.45283 5.44571 8.42377C6.06605 7.89951 6.85201 7.61188 7.66421 7.61188C8.47641 7.61188 9.26237 7.89951 9.88271 8.42377C9.91447 8.45259 9.94001 8.4876 9.95776 8.52664C9.97551 8.56569 9.9851 8.60795 9.98594 8.65083C9.98678 8.69371 9.97886 8.73631 9.96266 8.77602C9.94645 8.81573 9.92231 8.85172 9.89171 8.88177L7.88971 10.9038C7.8606 10.9332 7.82595 10.9565 7.78776 10.9725C7.74957 10.9884 7.70859 10.9966 7.66721 10.9966C7.62582 10.9966 7.58485 10.9884 7.54666 10.9725C7.50847 10.9565 7.47382 10.9332 7.44471 10.9038H7.44571ZM10.9757 7.36177C10.0697 6.54214 8.89147 6.08829 7.66971 6.08829C6.44795 6.08829 5.26975 6.54214 4.36371 7.36177C4.30494 7.41797 4.2265 7.44892 4.14519 7.44798C4.06388 7.44705 3.98617 7.4143 3.92871 7.35677L2.76871 6.18577C2.73811 6.15579 2.7138 6.12 2.69721 6.08051C2.68061 6.04101 2.67206 5.99861 2.67206 5.95577C2.67206 5.91293 2.68061 5.87052 2.69721 5.83103C2.7138 5.79153 2.73811 5.75575 2.76871 5.72577C4.09928 4.48976 5.84813 3.80281 7.66421 3.80281C9.48028 3.80281 11.2291 4.48976 12.5597 5.72577C12.5903 5.75575 12.6146 5.79153 12.6312 5.83103C12.6478 5.87052 12.6564 5.91293 12.6564 5.95577C12.6564 5.99861 12.6478 6.04101 12.6312 6.08051C12.6146 6.12 12.5903 6.15579 12.5597 6.18577L11.4097 7.35677C11.3522 7.4143 11.2745 7.44705 11.1932 7.44798C11.1119 7.44892 11.0335 7.41797 10.9747 7.36177H10.9757ZM13.6447 4.66177C12.0316 3.12975 9.89188 2.27556 7.66721 2.27556C5.44254 2.27556 3.3028 3.12975 1.68971 4.66177C1.63197 4.71935 1.55375 4.75169 1.47221 4.75169C1.39066 4.75169 1.31245 4.71935 1.25471 4.66177L0.0947091 3.49677C0.0646844 3.46677 0.040866 3.43115 0.0246152 3.39194C0.00836444 3.35273 0 3.31071 0 3.26827C0 3.22582 0.00836444 3.1838 0.0246152 3.14459C0.040866 3.10538 0.0646844 3.06976 0.0947091 3.03977C2.1323 1.08895 4.84431 0 7.66521 0C10.4861 0 13.1981 1.08895 15.2357 3.03977C15.2657 3.06976 15.2896 3.10538 15.3058 3.14459C15.3221 3.1838 15.3304 3.22582 15.3304 3.26827C15.3304 3.31071 15.3221 3.35273 15.3058 3.39194C15.2896 3.43115 15.2657 3.46677 15.2357 3.49677L14.0747 4.66677C14.017 4.72435 13.9388 4.75669 13.8572 4.75669C13.7757 4.75669 13.6974 4.72435 13.6397 4.66677L13.6447 4.66177Z" fill="black"/>
</svg>
