<svg width="18" height="18" viewBox="0 0 18 18" fill="none" xmlns="http://www.w3.org/2000/svg">
<path d="M9 1.5C4.86 1.5 1.5 4.86 1.5 9C1.5 13.14 4.86 16.5 9 16.5C13.14 16.5 16.5 13.14 16.5 9C16.5 4.86 13.14 1.5 9 1.5Z" fill="white" stroke="#E5E7EB" stroke-width="1.5"/>
<path d="M9.00016 12.375C10.4002 12.375 11.5877 11.3475 11.8127 10.005L10.2527 9.4275C10.1402 9.84 9.78016 10.125 9.33016 10.125C8.82766 10.125 8.40016 9.72 8.40016 9.2475C8.40016 8.775 8.82766 8.37 9.33016 8.37C9.78016 8.37 10.1402 8.655 10.2527 9.0675L11.8127 8.49C11.5877 7.1475 10.4027 6.12 9.00016 6.12C7.59016 6.12 6.45016 7.2525 6.45016 8.745C6.45016 10.2375 7.59016 12.375 9.00016 12.375Z" fill="#4B5563"/>
</svg>
